<svg width="538" height="431" viewBox="0 0 538 431" fill="none" xmlns="http://www.w3.org/2000/svg">
<rect width="538" height="431" rx="20" fill="#F9F8F5"/>
<path d="M172.659 336.71C175.947 336.71 178.613 334.044 178.613 330.755C178.613 327.467 175.947 324.801 172.659 324.801C169.37 324.801 166.704 327.467 166.704 330.755C166.704 334.044 169.37 336.71 172.659 336.71Z" fill="#A78FE6"/>
<path d="M172.654 331.325H150.061C148.087 331.323 146.194 330.537 144.799 329.141C143.403 327.745 142.617 325.853 142.615 323.879V261.65C142.615 261.498 142.676 261.352 142.783 261.244C142.891 261.136 143.037 261.076 143.19 261.076C143.342 261.076 143.488 261.136 143.596 261.244C143.703 261.352 143.764 261.498 143.764 261.65V323.879C143.766 325.551 144.43 327.154 145.613 328.336C146.795 329.519 148.398 330.184 150.07 330.186H172.654C172.805 330.186 172.95 330.246 173.057 330.353C173.163 330.459 173.223 330.604 173.223 330.755C173.223 330.906 173.163 331.051 173.057 331.158C172.95 331.265 172.805 331.325 172.654 331.325Z" fill="#A78FE6"/>
<path d="M77.6483 87.4541H245.1C246.928 87.4541 248.681 88.1802 249.973 89.4726C251.266 90.765 251.992 92.5179 251.992 94.3456V246.615C251.992 248.589 251.603 250.544 250.847 252.368C250.092 254.192 248.985 255.849 247.589 257.245C246.193 258.641 244.535 259.748 242.712 260.504C240.888 261.259 238.933 261.648 236.958 261.648H77.6483C75.8206 261.648 74.0677 260.922 72.7753 259.63C71.4829 258.337 70.7568 256.585 70.7568 254.757V94.3505C70.7562 93.4451 70.934 92.5484 71.28 91.7118C71.6261 90.8751 72.1336 90.1148 72.7736 89.4743C73.4136 88.8339 74.1735 88.3258 75.0099 87.9792C75.8464 87.6325 76.7429 87.4541 77.6483 87.4541Z" fill="#A78FE6"/>
<g opacity="0.72">
<g opacity="0.75">
<path d="M235.497 80.4199H75.3435C69.5166 80.4199 64.793 85.1436 64.793 90.9705V244.067C64.793 249.894 69.5166 254.617 75.3435 254.617H235.497C241.324 254.617 246.048 249.894 246.048 244.067V90.9705C246.048 85.1436 241.324 80.4199 235.497 80.4199Z" fill="#9FABFF"/>
</g>
<path d="M235.497 255.044H75.3519C72.4416 255.04 69.6516 253.882 67.5936 251.825C65.5355 249.767 64.3774 246.977 64.373 244.067V90.9772C64.3774 88.0669 65.5355 85.2771 67.5936 83.2194C69.6516 81.1616 72.4416 80.0039 75.3519 80H235.497C238.408 80.0039 241.197 81.1616 243.256 83.2194C245.314 85.2771 246.472 88.0669 246.476 90.9772V244.067C246.472 246.977 245.314 249.767 243.256 251.825C241.197 253.882 238.408 255.04 235.497 255.044ZM75.3519 80.8483C72.6679 80.8509 70.0946 81.9182 68.1966 83.8158C66.2986 85.7135 65.231 88.2867 65.2279 90.9706V244.06C65.231 246.744 66.2986 249.317 68.1966 251.215C70.0946 253.113 72.6679 254.18 75.3519 254.183H235.497C238.181 254.18 240.754 253.113 242.652 251.215C244.55 249.317 245.618 246.744 245.621 244.06V90.9706C245.618 88.2867 244.55 85.7135 242.652 83.8158C240.754 81.9182 238.181 80.8509 235.497 80.8483H75.3519Z" fill="#2C44B7"/>
</g>
<path d="M89.7845 113.706H39.8031C34.9413 113.706 31 117.647 31 122.509V217.361C31 222.223 34.9413 226.164 39.8031 226.164H89.7845C94.6463 226.164 98.5876 222.223 98.5876 217.361V122.509C98.5876 117.647 94.6463 113.706 89.7845 113.706Z" fill="white"/>
<path d="M64.7915 164.41C76.6665 164.41 86.293 154.783 86.293 142.908C86.293 131.033 76.6665 121.407 64.7915 121.407C52.9166 121.407 43.29 131.033 43.29 142.908C43.29 154.783 52.9166 164.41 64.7915 164.41Z" fill="#A78FE6"/>
<path d="M86.5256 169.324H44.1987C42.6727 169.324 41.4355 170.561 41.4355 172.087V181.253C41.4355 182.779 42.6727 184.016 44.1987 184.016H86.5256C88.0517 184.016 89.2888 182.779 89.2888 181.253V172.087C89.2888 170.561 88.0517 169.324 86.5256 169.324Z" fill="#A78FE6"/>
<path d="M86.5256 186.442H44.1987C42.6727 186.442 41.4355 187.68 41.4355 189.206V198.371C41.4355 199.897 42.6727 201.134 44.1987 201.134H86.5256C88.0517 201.134 89.2888 199.897 89.2888 198.371V189.206C89.2888 187.68 88.0517 186.442 86.5256 186.442Z" fill="#A78FE6"/>
<path d="M86.5256 203.561H44.1987C42.6727 203.561 41.4355 204.798 41.4355 206.324V215.49C41.4355 217.016 42.6727 218.253 44.1987 218.253H86.5256C88.0517 218.253 89.2888 217.016 89.2888 215.49V206.324C89.2888 204.798 88.0517 203.561 86.5256 203.561Z" fill="#A78FE6"/>
<path d="M82.0141 142.906C82.0161 146.314 81.0073 149.646 79.1154 152.481C77.2234 155.315 74.5334 157.525 71.3854 158.831C68.2374 160.136 64.773 160.479 61.4303 159.815C58.0876 159.152 55.0168 157.511 52.6063 155.102C50.1958 152.693 48.554 149.623 47.8884 146.281C47.2228 142.939 47.5635 139.474 48.8672 136.325C50.1709 133.177 52.3791 130.485 55.2126 128.592C58.0461 126.698 61.3774 125.688 64.7854 125.688C67.0477 125.685 69.2884 126.129 71.3791 126.993C73.4698 127.858 75.3696 129.126 76.9698 130.725C78.57 132.324 79.8391 134.223 80.7047 136.313C81.5703 138.404 82.0152 140.644 82.0141 142.906Z" fill="#959CF5"/>
<path d="M64.8292 145.532C68.5157 145.532 71.5041 142.543 71.5041 138.857C71.5041 135.171 68.5157 132.182 64.8292 132.182C61.1428 132.182 58.1543 135.171 58.1543 138.857C58.1543 142.543 61.1428 145.532 64.8292 145.532Z" fill="white"/>
<path d="M73.0396 151.988V158.025C70.5218 159.396 67.7018 160.119 64.8347 160.127C61.9676 160.135 59.1436 159.428 56.6182 158.071V151.988C56.6186 151.14 56.7861 150.3 57.111 149.517C57.436 148.734 57.9121 148.022 58.5121 147.422C59.1121 146.823 59.8243 146.348 60.608 146.024C61.3917 145.699 62.2316 145.533 63.0798 145.533H66.578C67.4262 145.533 68.2661 145.699 69.0498 146.024C69.8335 146.348 70.5457 146.823 71.1457 147.422C71.7457 148.022 72.2218 148.734 72.5468 149.517C72.8717 150.3 73.0392 151.14 73.0396 151.988Z" fill="white"/>
<path d="M60.3864 171.716H44.4457C43.9309 171.716 43.5137 172.134 43.5137 172.648V181.082C43.5137 181.597 43.9309 182.014 44.4457 182.014H60.3864C60.9011 182.014 61.3184 181.597 61.3184 181.082V172.648C61.3184 172.134 60.9011 171.716 60.3864 171.716Z" fill="#F9F8F5"/>
<path d="M86.4308 175.966H76.4578C75.9612 175.966 75.5586 176.368 75.5586 176.864C75.5586 177.36 75.9612 177.763 76.4578 177.763H86.4308C86.9274 177.763 87.3299 177.36 87.3299 176.864C87.3299 176.368 86.9274 175.966 86.4308 175.966Z" fill="#A78FE6"/>
<path d="M60.3864 188.64H44.4457C43.9309 188.64 43.5137 189.057 43.5137 189.572V198.006C43.5137 198.52 43.9309 198.938 44.4457 198.938H60.3864C60.9011 198.938 61.3184 198.52 61.3184 198.006V189.572C61.3184 189.057 60.9011 188.64 60.3864 188.64Z" fill="#F9F8F5"/>
<path d="M85.3939 192.89H81.1179C80.6213 192.89 80.2188 193.292 80.2188 193.788C80.2188 194.284 80.6213 194.686 81.1179 194.686H85.3939C85.8905 194.686 86.2931 194.284 86.2931 193.788C86.2931 193.292 85.8905 192.89 85.3939 192.89Z" fill="#A78FE6"/>
<path d="M78.4524 192.89H70.7585C70.2619 192.89 69.8594 193.292 69.8594 193.788C69.8594 194.284 70.2619 194.686 70.7585 194.686H78.4524C78.949 194.686 79.3516 194.284 79.3516 193.788C79.3516 193.292 78.949 192.89 78.4524 192.89Z" fill="#A78FE6"/>
<path d="M60.3864 205.758H44.4457C43.9309 205.758 43.5137 206.176 43.5137 206.69V215.124C43.5137 215.639 43.9309 216.056 44.4457 216.056H60.3864C60.9011 216.056 61.3184 215.639 61.3184 215.124V206.69C61.3184 206.176 60.9011 205.758 60.3864 205.758Z" fill="#F9F8F5"/>
<path d="M85.3939 210.01H81.1179C80.6213 210.01 80.2188 210.412 80.2188 210.908C80.2188 211.404 80.6213 211.806 81.1179 211.806H85.3939C85.8905 211.806 86.2931 211.404 86.2931 210.908C86.2931 210.412 85.8905 210.01 85.3939 210.01Z" fill="#A78FE6"/>
<path d="M78.4524 210.01H70.7585C70.2619 210.01 69.8594 210.412 69.8594 210.908C69.8594 211.404 70.2619 211.806 70.7585 211.806H78.4524C78.949 211.806 79.3516 211.404 79.3516 210.908C79.3516 210.412 78.949 210.01 78.4524 210.01Z" fill="#A78FE6"/>
<path d="M279.146 288.747H179.807C175.968 288.747 172.856 291.858 172.856 295.697V362.614C172.856 366.452 175.968 369.564 179.807 369.564H279.146C282.985 369.564 286.097 366.452 286.097 362.614V295.697C286.097 291.858 282.985 288.747 279.146 288.747Z" fill="#7C7CED"/>
<path d="M229.477 362.748C239.941 362.748 248.424 354.266 248.424 343.802C248.424 333.338 239.941 324.855 229.477 324.855C219.013 324.855 210.53 333.338 210.53 343.802C210.53 354.266 219.013 362.748 229.477 362.748Z" fill="#A4AFFF"/>
<path d="M240.093 335.751C236.688 342.229 233.286 348.711 229.887 355.195C228.902 357.072 226.538 356.621 225.456 355.195L218.332 345.764C216.337 343.122 220.793 340.572 222.762 343.173L227.276 349.149C230.07 343.819 232.865 338.49 235.662 333.16C237.201 330.232 241.623 332.827 240.093 335.751Z" fill="#C0CBFF"/>
<path d="M270.247 296.203H188.514C186.756 296.203 185.331 297.628 185.331 299.386V314.463C185.331 316.222 186.756 317.647 188.514 317.647H270.247C272.006 317.647 273.431 316.222 273.431 314.463V299.386C273.431 297.628 272.006 296.203 270.247 296.203Z" fill="white"/>
<path d="M199.472 313.758C199.187 313.476 199.046 313.07 199.047 312.542V302.218C199.047 301.691 199.189 301.286 199.472 301.004C199.755 300.722 200.16 300.579 200.688 300.577H204.586C206.092 300.577 207.388 300.851 208.475 301.398C209.525 301.909 210.395 302.726 210.972 303.741C211.551 304.758 211.841 305.968 211.842 307.37C211.843 308.773 211.557 309.991 210.982 311.026C210.414 312.045 209.545 312.864 208.493 313.371C207.407 313.91 206.105 314.18 204.586 314.181H200.688C200.157 314.182 199.752 314.041 199.472 313.758ZM204.335 311.326C205.66 311.326 206.654 311.002 207.317 310.353C207.98 309.705 208.311 308.711 208.311 307.372C208.311 306.033 207.98 305.042 207.317 304.399C206.654 303.755 205.66 303.434 204.335 303.434H202.599V311.326H204.335Z" fill="#A78FE6"/>
<path d="M218.739 313.499C217.729 312.939 216.907 312.093 216.376 311.067C215.822 310.018 215.545 308.786 215.546 307.372C215.547 305.957 215.824 304.725 216.376 303.675C216.905 302.65 217.728 301.807 218.739 301.253C219.763 300.689 220.969 300.406 222.359 300.405C223.748 300.404 224.954 300.686 225.977 301.253C226.987 301.806 227.807 302.65 228.331 303.675C228.878 304.723 229.152 305.955 229.152 307.372C229.152 308.788 228.876 310.02 228.323 311.067C227.791 312.092 226.969 312.938 225.959 313.499C224.935 314.07 223.735 314.356 222.36 314.357C220.985 314.358 219.778 314.072 218.739 313.499ZM224.769 310.545C225.35 309.818 225.64 308.76 225.639 307.372C225.638 305.984 225.345 304.929 224.761 304.207C224.175 303.486 223.374 303.125 222.359 303.125C221.344 303.125 220.539 303.482 219.945 304.197C219.367 304.911 219.078 305.969 219.077 307.372C219.076 308.774 219.365 309.835 219.945 310.555C220.525 311.276 221.329 311.636 222.359 311.635C223.388 311.634 224.191 311.27 224.769 310.545Z" fill="#A78FE6"/>
<path d="M244.85 300.964C245.009 301.13 245.132 301.327 245.214 301.543C245.295 301.758 245.333 301.987 245.324 302.218V312.542C245.334 312.774 245.299 313.007 245.219 313.225C245.139 313.444 245.017 313.645 244.859 313.817C244.705 313.976 244.519 314.102 244.313 314.185C244.107 314.268 243.885 314.307 243.663 314.299C243.083 314.299 242.646 314.106 242.351 313.72L236.481 306.405V312.542C236.504 313.008 236.344 313.465 236.037 313.817C235.884 313.978 235.698 314.105 235.491 314.189C235.285 314.272 235.063 314.31 234.84 314.299C234.618 314.307 234.397 314.268 234.191 314.185C233.985 314.102 233.799 313.976 233.644 313.817C233.487 313.645 233.365 313.444 233.286 313.225C233.206 313.007 233.171 312.774 233.182 312.542V302.218C233.172 301.988 233.208 301.76 233.288 301.544C233.367 301.329 233.488 301.132 233.644 300.964C233.799 300.804 233.985 300.678 234.191 300.595C234.397 300.512 234.618 300.473 234.84 300.481C235.086 300.469 235.332 300.515 235.557 300.616C235.781 300.716 235.979 300.869 236.133 301.061L241.999 308.354V302.218C241.988 301.987 242.023 301.757 242.101 301.54C242.179 301.324 242.299 301.124 242.454 300.954C242.607 300.796 242.792 300.673 242.997 300.592C243.201 300.51 243.42 300.473 243.64 300.481C243.864 300.474 244.087 300.512 244.296 300.596C244.504 300.679 244.692 300.804 244.85 300.964Z" fill="#A78FE6"/>
<path d="M250.146 313.758C249.863 313.476 249.721 313.07 249.72 312.542V302.218C249.72 301.691 249.862 301.286 250.146 301.004C250.431 300.722 250.835 300.579 251.361 300.577H258.037C258.59 300.577 259.008 300.694 259.292 300.927C259.436 301.049 259.549 301.204 259.623 301.378C259.697 301.552 259.729 301.741 259.717 301.929C259.717 302.855 259.157 303.318 258.037 303.319H253.175V305.905H257.648C258.767 305.905 259.327 306.362 259.328 307.275C259.34 307.464 259.307 307.652 259.234 307.826C259.16 308 259.047 308.155 258.903 308.278C258.619 308.508 258.201 308.624 257.648 308.625H253.172V311.443H258.034C259.154 311.443 259.714 311.906 259.714 312.833C259.725 313.021 259.693 313.21 259.619 313.384C259.545 313.558 259.432 313.712 259.289 313.835C259.006 314.067 258.587 314.183 258.034 314.183H251.357C250.832 314.183 250.429 314.041 250.146 313.758Z" fill="#A78FE6"/>
<path d="M418.238 248.194V238.349C418.238 235.625 420.102 233.129 422.669 232.427L462.357 221.525C464.935 220.818 467.46 222.182 468.244 224.726C470.189 231.034 472.724 243.667 468.769 259.381L431.153 269.972C424.426 271.866 418.238 267.007 418.238 259.847V248.194Z" fill="#0D2E5E"/>
<path d="M433.874 211.337C433.874 211.337 436.664 215.136 444.006 219.443L428.809 237.679H423.619C423.619 237.679 425.139 223.875 433.874 211.337Z" fill="#C2C7F8"/>
<path d="M426.303 235.4C427.095 231.362 429.199 223.094 434.179 215.018C436.15 216.873 438.289 218.541 440.568 220.001L427.737 235.4H426.303Z" fill="#CBD0F4"/>
<path d="M426.579 235.336C426.579 235.336 436.34 227.801 445.81 210.83L457.684 222.861L453.632 243.004L426.579 235.336Z" fill="#959CF5"/>
<path d="M428.811 235.652L463.257 208.551C463.257 208.551 469.843 221.215 482 229.954L455.405 253.9L428.811 235.652Z" fill="#7382F4"/>
<path d="M433.618 235.496L462.448 212.813C464.919 216.767 470.012 223.982 477.543 230.129L455.161 250.281L433.618 235.496Z" fill="#8B9CFC"/>
<path d="M473.355 252.209C473.264 255.939 472.838 259.654 472.083 263.309C471.852 264.41 471.298 265.417 470.492 266.202C469.687 266.987 468.666 267.515 467.559 267.718L431.771 274.299C430.118 274.603 428.419 274.539 426.794 274.113C425.168 273.687 423.657 272.909 422.365 271.833C421.074 270.758 420.035 269.412 419.322 267.89C418.609 266.369 418.24 264.709 418.239 263.028V241.534C418.241 240.215 418.706 238.939 419.552 237.927C420.399 236.916 421.573 236.234 422.871 236.001L464.476 228.617C465.781 228.384 467.127 228.633 468.261 229.319C469.396 230.005 470.242 231.079 470.643 232.343C472.624 238.773 473.54 245.483 473.355 252.209Z" fill="#1F3E77"/>
<path d="M473.355 252.209C473.264 255.939 472.838 259.654 472.083 263.309C471.852 264.41 471.298 265.417 470.492 266.202C469.687 266.987 468.666 267.515 467.559 267.718L431.771 274.299C430.118 274.603 428.419 274.539 426.794 274.113C425.168 273.687 423.657 272.909 422.365 271.833C421.074 270.758 420.035 269.412 419.322 267.89C418.609 266.369 418.24 264.709 418.239 263.028V241.534C418.238 240.519 418.512 239.523 419.032 238.652C419.552 237.781 420.299 237.067 421.193 236.586C426.553 244.042 440.519 256.23 473.355 252.209Z" fill="#1B396B"/>
<path d="M418.238 249.51C418.238 249.51 415.647 249.872 415.503 251.372V262.874C415.503 262.874 415.634 264.497 419.096 264.226C421.121 264.062 424.869 263.112 427.629 262.346C428.613 262.073 429.481 261.484 430.099 260.671C430.717 259.857 431.051 258.864 431.05 257.842V250.448C431.05 249.996 430.949 249.549 430.754 249.141C430.558 248.733 430.274 248.374 429.921 248.091C429.569 247.807 429.157 247.606 428.716 247.503C428.276 247.4 427.818 247.397 427.376 247.495L418.238 249.51Z" fill="#1F4C93"/>
<path d="M426.579 257.891C427.921 257.891 429.009 256.715 429.009 255.264C429.009 253.813 427.921 252.637 426.579 252.637C425.236 252.637 424.148 253.813 424.148 255.264C424.148 256.715 425.236 257.891 426.579 257.891Z" fill="#3D79D1"/>
<path d="M317.363 154.044C317.363 154.044 357.372 158.888 382.196 188.576L386.437 184.994C386.589 184.865 386.772 184.78 386.968 184.745C387.163 184.711 387.365 184.729 387.551 184.798C387.737 184.867 387.902 184.984 388.028 185.137C388.154 185.291 388.237 185.475 388.269 185.672L391.048 202.874C391.077 203.054 391.062 203.239 391.004 203.412C390.945 203.585 390.846 203.741 390.713 203.867C390.581 203.993 390.42 204.084 390.244 204.134C390.068 204.183 389.883 204.189 389.704 204.151L371.755 200.28C371.56 200.238 371.379 200.144 371.232 200.009C371.085 199.873 370.977 199.701 370.919 199.51C370.861 199.319 370.855 199.115 370.901 198.921C370.948 198.727 371.046 198.548 371.184 198.404L375.969 193.439C375.969 193.439 352.343 161.484 317.363 154.044Z" fill="#2E45FA"/>
<path d="M303.079 144.17C315.587 144.17 325.726 134.03 325.726 121.523C325.726 109.015 315.587 98.876 303.079 98.876C290.572 98.876 280.433 109.015 280.433 121.523C280.433 134.03 290.572 144.17 303.079 144.17Z" fill="#F49000"/>
<path d="M327.619 121.521C327.62 123.53 327.354 125.531 326.828 127.469C326.442 128.901 325.913 130.289 325.248 131.614C323.809 134.503 321.771 137.051 319.268 139.088C316.765 141.126 313.857 142.605 310.736 143.428C309.237 143.821 307.701 144.059 306.153 144.14C305.763 144.158 305.367 144.168 304.974 144.168C299.714 144.17 294.618 142.339 290.562 138.991C289.051 137.743 287.707 136.304 286.565 134.71C283.804 130.866 282.321 126.252 282.325 121.52C282.325 120.798 282.359 120.087 282.427 119.387C282.858 114.786 284.688 110.428 287.671 106.898C290.653 103.369 294.645 100.838 299.109 99.6457C299.929 99.4253 300.762 99.2527 301.602 99.1288C302.717 98.9625 303.844 98.8791 304.972 98.8794C310.977 98.8794 316.737 101.265 320.983 105.512C325.23 109.758 327.615 115.517 327.615 121.523L327.619 121.521Z" fill="#F9B132"/>
<path d="M287.783 121.523C287.779 124.91 288.78 128.222 290.66 131.039L286.558 134.708C284.546 131.912 283.203 128.692 282.633 125.295L287.816 120.356C287.797 120.745 287.783 121.134 287.783 121.523Z" fill="#FFB743"/>
<path d="M320.096 104.666L315.994 108.335C312.903 105.745 308.998 104.328 304.966 104.333C304.859 104.333 304.749 104.333 304.638 104.333L309.828 99.4009C313.649 100.235 317.188 102.05 320.096 104.666Z" fill="#FFB743"/>
<path d="M304.972 138.711C306.262 138.711 307.548 138.567 308.805 138.281L302.367 144.024C298.027 143.525 293.927 141.777 290.562 138.991L294.868 135.422C297.801 137.565 301.34 138.717 304.972 138.711Z" fill="#FFB743"/>
<path d="M321.18 127.258C322.689 122.984 322.453 118.288 320.523 114.187L324.829 110.621C326.665 113.96 327.625 117.71 327.618 121.521L321.18 127.258Z" fill="#FFB743"/>
<path d="M326.827 127.471C326.441 128.902 325.912 130.291 325.247 131.615L310.735 143.429C309.236 143.822 307.7 144.061 306.152 144.142L326.827 127.471Z" fill="#FFB743"/>
<path d="M301.601 99.1191L282.425 119.383C282.571 117.824 282.88 116.284 283.345 114.789L299.107 99.6508C299.927 99.4253 300.76 99.2478 301.601 99.1191Z" fill="#FFB743"/>
<path d="M316 108.336L290.661 131.045C288.78 128.227 287.779 124.915 287.784 121.528C287.784 121.139 287.797 120.75 287.824 120.366L304.649 104.342C304.755 104.342 304.865 104.342 304.977 104.342C309.007 104.335 312.91 105.749 316 108.336Z" fill="#FFED9F"/>
<path d="M304.648 104.337L287.823 120.361C288.114 116.069 290.003 112.042 293.118 109.075C296.233 106.109 300.347 104.418 304.648 104.337Z" fill="#FFF1B8"/>
<path d="M322.161 121.523C322.163 123.479 321.83 125.422 321.176 127.266L308.801 138.289C307.544 138.575 306.258 138.719 304.968 138.719C301.338 138.727 297.8 137.577 294.867 135.437L320.517 114.198C321.6 116.488 322.161 118.99 322.161 121.523Z" fill="#FFED9F"/>
<path d="M320.52 114.187L294.87 135.426C293.219 134.227 291.794 132.743 290.663 131.045L316.002 108.335C317.914 109.936 319.455 111.933 320.52 114.187Z" fill="#FFF1B8"/>
<path d="M321.181 127.257C320.212 129.987 318.57 132.429 316.407 134.356C314.244 136.283 311.629 137.633 308.806 138.28L321.181 127.257Z" fill="#FFF1B8"/>
<path d="M312.099 122.36C311.512 121.633 310.749 121.068 309.882 120.719C309.024 120.39 308.148 120.113 307.257 119.887V114.771C307.498 114.82 307.735 114.889 307.964 114.978C308.674 115.275 309.356 115.636 310.001 116.057C310.232 116.203 310.478 116.324 310.734 116.418C310.919 116.474 311.111 116.502 311.303 116.5C311.497 116.495 311.687 116.445 311.858 116.354C312.028 116.263 312.176 116.133 312.288 115.975C312.571 115.632 312.723 115.201 312.718 114.756C312.725 114.459 312.663 114.165 312.537 113.896C312.398 113.636 312.192 113.416 311.942 113.26C310.56 112.256 308.952 111.609 307.26 111.376V109.853C307.254 109.526 307.152 109.207 306.969 108.936C306.785 108.665 306.526 108.453 306.225 108.325C305.923 108.198 305.591 108.16 305.268 108.217C304.946 108.275 304.647 108.424 304.407 108.647C304.249 108.804 304.125 108.993 304.044 109.201C303.963 109.408 303.926 109.631 303.936 109.853V111.425C302.219 111.721 300.829 112.404 299.767 113.475C299.254 113.976 298.848 114.576 298.575 115.24C298.302 115.903 298.167 116.615 298.178 117.332C298.178 118.605 298.497 119.621 299.133 120.379C299.743 121.117 300.529 121.689 301.419 122.041C302.245 122.358 303.087 122.632 303.941 122.862V127.834C303.59 127.778 303.242 127.699 302.901 127.599C302.052 127.331 301.239 126.964 300.477 126.504C299.961 126.209 299.527 126.061 299.174 126.061C298.981 126.067 298.791 126.117 298.62 126.208C298.45 126.299 298.302 126.429 298.19 126.586C297.962 126.879 297.818 127.229 297.774 127.598C297.73 127.966 297.788 128.34 297.94 128.679C298.088 128.939 298.304 129.154 298.564 129.302C299.334 129.845 300.179 130.274 301.071 130.577C302.026 130.909 303.018 131.123 304.025 131.214V132.708C304.015 132.931 304.052 133.153 304.133 133.361C304.214 133.569 304.337 133.757 304.496 133.914C304.728 134.157 305.029 134.324 305.358 134.392C305.687 134.46 306.029 134.426 306.338 134.295C306.648 134.164 306.91 133.942 307.09 133.659C307.271 133.376 307.361 133.044 307.349 132.708V131.13C309.084 130.835 310.464 130.174 311.489 129.149C311.989 128.658 312.383 128.07 312.648 127.421C312.912 126.772 313.041 126.076 313.026 125.376C313.026 124.112 312.717 123.107 312.099 122.36ZM302.999 118.317C302.826 118.157 302.689 117.961 302.598 117.744C302.508 117.527 302.465 117.292 302.472 117.057C302.464 116.71 302.542 116.366 302.699 116.057C302.856 115.747 303.088 115.482 303.373 115.284C303.55 115.154 303.741 115.044 303.943 114.956V118.921C303.597 118.772 303.279 118.568 302.999 118.317ZM307.846 127.32C307.664 127.443 307.469 127.544 307.264 127.622V123.863C307.61 123.997 307.933 124.187 308.22 124.424C308.386 124.562 308.518 124.736 308.607 124.933C308.696 125.129 308.739 125.344 308.734 125.559C308.748 125.904 308.674 126.246 308.519 126.554C308.363 126.862 308.132 127.125 307.846 127.318V127.32Z" fill="#F9B132"/>
<path d="M391.023 143.525L392.047 144.419L388.787 148.142C388.708 148.245 388.623 148.349 388.541 148.451C385.177 152.287 379.487 153.332 373.394 151.832C370.352 151.081 367.207 149.699 364.205 147.699C362.922 146.85 361.699 145.914 360.543 144.898C360.226 144.619 359.913 144.332 359.608 144.048C356.052 140.699 353.461 136.856 351.968 133.04C351.002 130.579 350.5 128.134 350.491 125.837C350.475 122.686 351.392 119.821 353.337 117.605L356.851 113.591L357.89 114.5C359.124 114.04 360.415 113.751 361.728 113.64C367.733 113.092 375.109 115.706 381.336 121.16C388.971 127.845 392.592 136.807 391.023 143.525Z" fill="#F49000"/>
<path d="M363.715 123.403L369.535 135.289L359.608 144.045C356.053 140.696 353.462 136.853 351.969 133.036L363.715 123.403Z" fill="#E58200"/>
<path d="M379.164 144.232L373.395 151.833C370.353 151.081 367.207 149.7 364.206 147.7L372.166 138.915L379.164 144.232Z" fill="#E58200"/>
<path d="M361.732 113.644L362.175 115.121L350.495 125.835C350.479 122.685 351.396 119.82 353.341 117.603L356.855 113.59L357.894 114.499C359.128 114.041 360.42 113.753 361.732 113.644Z" fill="#E58200"/>
<path d="M392.46 144.004C398.202 137.449 394.978 125.231 385.257 116.715C375.536 108.199 363 106.61 357.258 113.165C351.515 119.721 354.74 131.938 364.46 140.454C374.181 148.97 386.717 150.559 392.46 144.004Z" fill="#F9B132"/>
<path d="M390.306 141.426C389.951 141.832 389.556 142.202 389.127 142.53C389.115 142.53 389.112 142.545 389.107 142.548C383.966 146.486 374.271 144.527 366.45 137.678C357.974 130.247 354.904 119.885 359.595 114.523C359.685 114.414 359.789 114.313 359.882 114.209C359.902 114.191 359.923 114.175 359.938 114.16C364.79 109.246 375.171 111.018 383.451 118.27C391.933 125.7 395.001 136.069 390.306 141.426Z" fill="#EFDC8F"/>
<path d="M389.408 142.217C389.318 142.327 389.214 142.427 389.121 142.53C389.109 142.53 389.106 142.545 389.101 142.548C383.96 146.486 374.265 144.527 366.445 137.678C357.968 130.247 354.898 119.885 359.589 114.523C359.679 114.415 359.783 114.313 359.876 114.21C359.896 114.192 359.917 114.175 359.932 114.16C365.086 110.263 374.746 112.228 382.548 119.065C391.036 126.495 394.109 136.858 389.408 142.217Z" fill="#FFF1B8"/>
<path d="M364.826 118.276C365.164 117.89 365.82 117.91 366.293 118.323L367.277 119.19C368.836 117.795 370.659 117.43 372.746 118.095C373.608 118.371 374.172 119.298 373.975 120.064C373.798 120.757 373.071 121.072 372.297 120.837C371.954 120.725 371.598 120.657 371.238 120.635C370.587 120.638 369.951 120.83 369.406 121.186L374.536 125.682C376.377 124.588 377.988 124.109 379.367 124.243C380.746 124.378 382.069 125 383.336 126.111C384.728 127.329 385.61 128.712 385.985 130.26C386.359 131.808 386.047 133.306 385.051 134.754L386.572 136.088C387.043 136.5 387.151 137.148 386.811 137.536C386.473 137.921 385.817 137.9 385.346 137.488L383.824 136.156C381.976 137.765 379.8 138.102 377.295 137.166C376.387 136.828 375.847 135.821 376.115 135.033C376.356 134.323 377.16 134.049 377.974 134.352C379.375 134.872 380.572 134.775 381.564 134.062L376.008 129.195C373.024 130.935 370.285 130.712 367.791 128.527C366.652 127.552 365.816 126.27 365.382 124.834C364.945 123.4 365.169 121.987 366.055 120.596L365.07 119.729C364.595 119.311 364.488 118.663 364.826 118.276ZM368.342 122.494C367.765 123.795 368.093 124.983 369.327 126.06C370.483 127.072 371.7 127.236 372.978 126.552L368.342 122.494ZM382.688 132.831C383.591 131.327 383.305 129.929 381.83 128.636C380.482 127.458 379.06 127.358 377.564 128.337L382.688 132.831Z" fill="#F9AC30"/>
<path d="M420.76 199.037C432.73 199.037 442.433 189.333 442.433 177.363C442.433 165.393 432.73 155.689 420.76 155.689C408.79 155.689 399.086 165.393 399.086 177.363C399.086 189.333 408.79 199.037 420.76 199.037Z" fill="#F49000"/>
<path d="M439.658 191.307C438.518 192.855 437.177 194.244 435.669 195.437C434.559 196.321 433.362 197.091 432.097 197.734C429.348 199.14 426.331 199.943 423.246 200.09C420.162 200.237 417.082 199.723 414.212 198.584C412.833 198.035 411.513 197.346 410.274 196.528C409.964 196.322 409.654 196.105 409.349 195.872C407.058 194.183 405.123 192.06 403.654 189.623C402.184 187.186 401.21 184.483 400.785 181.669C400.361 178.855 400.495 175.985 401.18 173.223C401.866 170.461 403.088 167.862 404.779 165.572C405.189 165.016 405.62 164.486 406.072 163.982C407.072 162.862 408.187 161.849 409.398 160.962C412.348 158.802 415.795 157.422 419.421 156.95C423.046 156.478 426.732 156.929 430.136 158.261C430.893 158.557 431.632 158.897 432.35 159.278C433.303 159.784 434.218 160.36 435.087 161.001C437.378 162.69 439.314 164.815 440.783 167.252C442.253 169.69 443.228 172.394 443.653 175.209C444.077 178.023 443.943 180.894 443.258 183.657C442.572 186.42 441.349 189.021 439.658 191.31V191.307Z" fill="#F9B132"/>
<path d="M408.981 168.672C407.051 171.278 405.939 174.399 405.786 177.638L400.547 178.13C400.587 174.834 401.383 171.591 402.875 168.651L409.672 167.794C409.434 168.08 409.202 168.372 408.981 168.672Z" fill="#FFB743"/>
<path d="M443.442 174.053L438.203 174.545C437.296 170.793 435.095 167.48 431.985 165.192C431.903 165.132 431.821 165.069 431.734 165.012L438.531 164.155C440.999 166.972 442.692 170.383 443.442 174.053Z" fill="#FFB743"/>
<path d="M412.45 191.673C413.443 192.407 414.514 193.026 415.645 193.521L407.428 194.28C404.369 191.433 402.203 187.759 401.192 183.704L406.537 183.403C407.579 186.718 409.65 189.615 412.45 191.673Z" fill="#FFB743"/>
<path d="M431.439 192.065C435.029 189.63 437.515 185.879 438.359 181.625L443.701 181.328C443.219 184.942 441.828 188.376 439.658 191.307L431.439 192.065Z" fill="#FFB743"/>
<path d="M435.667 195.436C434.556 196.32 433.359 197.09 432.095 197.733L414.209 198.583C412.83 198.034 411.511 197.345 410.271 196.527L435.667 195.436Z" fill="#FFB743"/>
<path d="M432.349 159.275L406.071 163.979C407.071 162.858 408.186 161.846 409.397 160.958L430.136 158.257C430.893 158.554 431.632 158.893 432.349 159.275Z" fill="#FFB743"/>
<path d="M438.201 174.551L405.785 177.637C405.938 174.398 407.05 171.278 408.98 168.672C409.201 168.372 409.433 168.08 409.671 167.799L431.74 165.021C431.824 165.078 431.904 165.141 431.991 165.201C435.097 167.49 437.296 170.801 438.201 174.551Z" fill="#FFED9F"/>
<path d="M431.742 165.021L409.673 167.799C412.336 164.658 416.08 162.629 420.167 162.115C424.253 161.6 428.384 162.638 431.742 165.021Z" fill="#FFF1B8"/>
<path d="M435.453 188.216C434.345 189.722 432.987 191.026 431.439 192.074L415.645 193.529C413.494 192.589 411.569 191.2 409.998 189.456C408.428 187.711 407.248 185.651 406.538 183.414L438.359 181.633C437.89 184.016 436.898 186.265 435.453 188.216Z" fill="#FFED9F"/>
<path d="M438.358 181.625L406.538 183.406C405.947 181.543 405.693 179.591 405.788 177.64L438.204 174.553C438.767 176.872 438.819 179.285 438.358 181.625Z" fill="#FFF1B8"/>
<path d="M431.438 192.065C429.141 193.617 426.488 194.564 423.728 194.819C420.967 195.073 418.186 194.627 415.644 193.521L431.438 192.065Z" fill="#FFF1B8"/>
<path d="M427.229 183.13C427.189 182.237 426.921 181.37 426.451 180.611C425.979 179.87 425.463 179.158 424.907 178.478L427.82 174.54C427.976 174.715 428.119 174.903 428.246 175.101C428.623 175.734 428.943 176.399 429.199 177.09C429.295 177.333 429.416 177.565 429.56 177.784C429.67 177.932 429.802 178.063 429.951 178.171C430.103 178.277 430.277 178.345 430.46 178.372C430.644 178.398 430.83 178.382 431.006 178.324C431.419 178.222 431.782 177.975 432.03 177.629C432.204 177.406 432.324 177.144 432.379 176.866C432.421 176.586 432.387 176.3 432.283 176.036C431.788 174.481 430.917 173.072 429.748 171.934L430.614 170.761C430.795 170.505 430.899 170.202 430.912 169.889C430.924 169.576 430.846 169.266 430.686 168.996C430.526 168.726 430.292 168.509 430.01 168.37C429.729 168.231 429.414 168.176 429.103 168.213C428.892 168.243 428.69 168.317 428.509 168.43C428.329 168.543 428.174 168.693 428.054 168.869L427.157 170.085C425.667 169.337 424.209 169.073 422.782 169.294C422.103 169.387 421.45 169.618 420.862 169.973C420.275 170.327 419.767 170.797 419.368 171.355C418.643 172.339 418.311 173.303 418.372 174.244C418.424 175.159 418.706 176.046 419.192 176.822C419.649 177.536 420.142 178.226 420.669 178.89L417.847 182.714C417.607 182.472 417.384 182.214 417.179 181.942C416.677 181.253 416.259 180.508 415.933 179.722C415.704 179.2 415.453 178.839 415.184 178.64C415.031 178.535 414.857 178.466 414.673 178.439C414.49 178.412 414.303 178.428 414.127 178.486C413.784 178.583 413.474 178.772 413.231 179.032C412.988 179.292 412.82 179.614 412.747 179.963C412.712 180.247 412.756 180.536 412.872 180.798C413.156 181.654 413.563 182.464 414.079 183.203C414.624 184.001 415.265 184.729 415.987 185.371L415.138 186.52C415.003 186.685 414.904 186.876 414.848 187.082C414.791 187.288 414.778 187.503 414.809 187.714C414.85 188.033 414.987 188.332 415.201 188.572C415.416 188.811 415.698 188.98 416.011 189.055C416.323 189.13 416.651 189.109 416.951 188.993C417.251 188.878 417.509 188.674 417.691 188.408L418.588 187.192C420.093 187.951 421.532 188.225 422.904 188.013C423.569 187.918 424.208 187.689 424.781 187.338C425.354 186.988 425.849 186.524 426.236 185.975C426.953 185.007 427.284 184.058 427.229 183.13ZM422.52 174.843C422.477 174.622 422.483 174.394 422.536 174.175C422.59 173.956 422.691 173.751 422.831 173.575C423.022 173.303 423.277 173.082 423.573 172.933C423.87 172.783 424.199 172.71 424.531 172.72C424.741 172.722 424.949 172.748 425.153 172.797L422.9 175.849C422.72 175.538 422.592 175.199 422.52 174.847V174.843ZM421.136 184.524C420.927 184.515 420.719 184.482 420.516 184.426L422.649 181.531C422.839 181.836 422.98 182.168 423.066 182.516C423.115 182.717 423.117 182.926 423.074 183.128C423.031 183.329 422.943 183.519 422.817 183.682C422.632 183.956 422.381 184.177 422.087 184.326C421.793 184.475 421.466 184.547 421.136 184.534V184.524Z" fill="#F9B132"/>
<path d="M73.4337 175.966H63.4607C62.9641 175.966 62.5615 176.368 62.5615 176.864C62.5615 177.36 62.9641 177.763 63.4607 177.763H73.4337C73.9303 177.763 74.3329 177.36 74.3329 176.864C74.3329 176.368 73.9303 175.966 73.4337 175.966Z" fill="#EFE9FF"/>
<path d="M67.7367 192.89H63.4607C62.9641 192.89 62.5615 193.292 62.5615 193.788C62.5615 194.284 62.9641 194.686 63.4607 194.686H67.7367C68.2333 194.686 68.6359 194.284 68.6359 193.788C68.6359 193.292 68.2333 192.89 67.7367 192.89Z" fill="#EFE9FF"/>
<path d="M67.7367 210.01H63.4607C62.9641 210.01 62.5615 210.412 62.5615 210.908C62.5615 211.404 62.9641 211.806 63.4607 211.806H67.7367C68.2333 211.806 68.6359 211.404 68.6359 210.908C68.6359 210.412 68.2333 210.01 67.7367 210.01Z" fill="#EFE9FF"/>
</svg>
