<svg width="341" height="407" viewBox="0 0 341 407" fill="none" xmlns="http://www.w3.org/2000/svg">
<path d="M9 12.9369C9 5.79207 14.7921 0 21.9369 0H319.487C326.631 0 332.423 5.79206 332.423 12.9369V260.032C332.423 267.177 326.631 272.969 319.487 272.969H21.9369C14.7921 272.969 9 267.177 9 260.032V12.9369Z" fill="#FAF9F6"/>
<g filter="url(#filter0_d_2409_34564)">
<path d="M32.9336 76.975C32.9336 69.8302 38.7257 64.0381 45.8705 64.0381H295.553C302.698 64.0381 308.49 69.8302 308.49 76.975V346.063C308.49 353.208 302.698 359 295.553 359H45.8705C38.7257 359 32.9336 353.208 32.9336 346.063V76.975Z" fill="white"/>
</g>
<g filter="url(#filter1_d_2409_34564)">
<path d="M47.1641 98.967C47.1641 93.9656 51.2185 89.9111 56.2199 89.9111H285.204C290.205 89.9111 294.26 93.9656 294.26 98.967V133.897C294.26 138.898 290.205 142.953 285.204 142.953H56.2199C51.2185 142.953 47.1641 138.898 47.1641 133.897V98.967Z" fill="white"/>
</g>
<path d="M128.285 123.548H125.981L125.996 122.357H128.285C129.074 122.357 129.731 122.193 130.256 121.865C130.782 121.531 131.176 121.066 131.439 120.47C131.707 119.869 131.841 119.166 131.841 118.363V117.688C131.841 117.056 131.765 116.495 131.613 116.005C131.462 115.51 131.239 115.093 130.946 114.754C130.653 114.411 130.294 114.151 129.87 113.974C129.45 113.797 128.968 113.708 128.422 113.708H125.936V112.511H128.422C129.145 112.511 129.804 112.632 130.4 112.875C130.997 113.112 131.51 113.458 131.939 113.913C132.374 114.363 132.707 114.909 132.94 115.55C133.172 116.187 133.288 116.905 133.288 117.703V118.363C133.288 119.161 133.172 119.881 132.94 120.523C132.707 121.16 132.371 121.703 131.932 122.153C131.497 122.603 130.971 122.949 130.355 123.191C129.743 123.429 129.054 123.548 128.285 123.548ZM126.762 112.511V123.548H125.299V112.511H126.762Z" fill="#4E4E4E"/>
<path d="M121.963 120.758C121.963 120.501 121.923 120.273 121.842 120.076C121.766 119.874 121.63 119.692 121.433 119.53C121.241 119.369 120.973 119.214 120.629 119.068C120.291 118.921 119.861 118.772 119.341 118.621C118.795 118.459 118.302 118.28 117.862 118.082C117.423 117.88 117.046 117.65 116.733 117.393C116.42 117.135 116.18 116.839 116.013 116.506C115.846 116.172 115.763 115.791 115.763 115.361C115.763 114.932 115.851 114.535 116.028 114.171C116.205 113.807 116.458 113.491 116.786 113.224C117.12 112.951 117.516 112.738 117.976 112.587C118.436 112.435 118.949 112.359 119.515 112.359C120.344 112.359 121.046 112.519 121.622 112.837C122.203 113.15 122.646 113.562 122.949 114.073C123.252 114.578 123.404 115.119 123.404 115.695H121.948C121.948 115.28 121.86 114.914 121.683 114.596C121.506 114.272 121.238 114.019 120.879 113.838C120.521 113.651 120.066 113.557 119.515 113.557C118.994 113.557 118.565 113.635 118.226 113.792C117.888 113.949 117.635 114.161 117.468 114.429C117.307 114.697 117.226 115.002 117.226 115.346C117.226 115.578 117.274 115.791 117.37 115.983C117.471 116.17 117.625 116.344 117.832 116.506C118.044 116.667 118.312 116.817 118.636 116.953C118.964 117.089 119.356 117.221 119.811 117.347C120.437 117.524 120.978 117.721 121.433 117.938C121.888 118.156 122.262 118.401 122.555 118.674C122.853 118.942 123.073 119.247 123.214 119.591C123.361 119.93 123.434 120.314 123.434 120.743C123.434 121.193 123.343 121.6 123.161 121.964C122.979 122.327 122.719 122.638 122.38 122.896C122.042 123.154 121.635 123.353 121.16 123.495C120.69 123.631 120.164 123.699 119.583 123.699C119.073 123.699 118.57 123.629 118.075 123.487C117.585 123.346 117.137 123.133 116.733 122.85C116.334 122.567 116.013 122.219 115.77 121.804C115.533 121.385 115.414 120.9 115.414 120.349H116.869C116.869 120.728 116.943 121.054 117.089 121.327C117.236 121.595 117.435 121.817 117.688 121.994C117.946 122.171 118.236 122.302 118.56 122.388C118.888 122.469 119.229 122.509 119.583 122.509C120.094 122.509 120.526 122.439 120.879 122.297C121.233 122.156 121.501 121.953 121.683 121.691C121.87 121.428 121.963 121.117 121.963 120.758Z" fill="#4E4E4E"/>
<path d="M112.329 112.511H113.784V119.977C113.784 120.806 113.6 121.496 113.231 122.047C112.862 122.598 112.372 123.012 111.761 123.29C111.154 123.563 110.495 123.699 109.782 123.699C109.034 123.699 108.357 123.563 107.751 123.29C107.149 123.012 106.672 122.598 106.318 122.047C105.969 121.496 105.795 120.806 105.795 119.977V112.511H107.243V119.977C107.243 120.553 107.349 121.028 107.561 121.402C107.773 121.776 108.069 122.054 108.448 122.236C108.832 122.418 109.277 122.509 109.782 122.509C110.293 122.509 110.737 122.418 111.116 122.236C111.5 122.054 111.798 121.776 112.011 121.402C112.223 121.028 112.329 120.553 112.329 119.977V112.511Z" fill="#4E4E4E"/>
<path d="M282.991 116.845V118.948C282.991 120.079 282.89 121.033 282.688 121.81C282.485 122.587 282.195 123.212 281.816 123.686C281.437 124.16 280.979 124.504 280.442 124.719C279.911 124.927 279.311 125.031 278.642 125.031C278.111 125.031 277.621 124.965 277.173 124.833C276.724 124.7 276.32 124.488 275.96 124.198C275.606 123.901 275.303 123.515 275.05 123.042C274.798 122.568 274.605 121.993 274.472 121.317C274.34 120.641 274.273 119.852 274.273 118.948V116.845C274.273 115.714 274.375 114.767 274.577 114.002C274.785 113.238 275.079 112.625 275.458 112.164C275.837 111.697 276.292 111.362 276.822 111.16C277.359 110.958 277.959 110.856 278.623 110.856C279.16 110.856 279.652 110.923 280.101 111.055C280.556 111.182 280.96 111.387 281.314 111.671C281.667 111.949 281.967 112.322 282.214 112.789C282.466 113.251 282.659 113.816 282.792 114.485C282.924 115.155 282.991 115.942 282.991 116.845ZM281.228 119.233V116.551C281.228 115.932 281.19 115.389 281.115 114.921C281.045 114.448 280.941 114.043 280.802 113.709C280.663 113.374 280.486 113.102 280.271 112.894C280.063 112.685 279.82 112.534 279.542 112.439C279.27 112.338 278.964 112.287 278.623 112.287C278.206 112.287 277.836 112.366 277.514 112.524C277.192 112.676 276.92 112.919 276.699 113.254C276.484 113.588 276.32 114.028 276.206 114.571C276.093 115.114 276.036 115.774 276.036 116.551V119.233C276.036 119.852 276.071 120.398 276.14 120.872C276.216 121.346 276.326 121.756 276.472 122.104C276.617 122.445 276.794 122.726 277.002 122.947C277.211 123.168 277.451 123.332 277.722 123.44C278 123.541 278.307 123.591 278.642 123.591C279.071 123.591 279.447 123.509 279.769 123.345C280.091 123.181 280.36 122.925 280.575 122.577C280.796 122.224 280.96 121.772 281.067 121.222C281.175 120.667 281.228 120.003 281.228 119.233Z" fill="#090B12"/>
<path d="M272.076 116.845V118.948C272.076 120.079 271.975 121.033 271.772 121.81C271.57 122.587 271.28 123.212 270.901 123.686C270.522 124.16 270.064 124.504 269.527 124.719C268.996 124.927 268.396 125.031 267.727 125.031C267.196 125.031 266.706 124.965 266.258 124.833C265.809 124.7 265.405 124.488 265.045 124.198C264.691 123.901 264.388 123.515 264.135 123.042C263.883 122.568 263.69 121.993 263.557 121.317C263.425 120.641 263.358 119.852 263.358 118.948V116.845C263.358 115.714 263.459 114.767 263.662 114.002C263.87 113.238 264.164 112.625 264.543 112.164C264.922 111.697 265.377 111.362 265.907 111.16C266.444 110.958 267.044 110.856 267.708 110.856C268.244 110.856 268.737 110.923 269.186 111.055C269.641 111.182 270.045 111.387 270.399 111.671C270.752 111.949 271.052 112.322 271.299 112.789C271.551 113.251 271.744 113.816 271.877 114.485C272.009 115.155 272.076 115.942 272.076 116.845ZM270.313 119.233V116.551C270.313 115.932 270.275 115.389 270.2 114.921C270.13 114.448 270.026 114.043 269.887 113.709C269.748 113.374 269.571 113.102 269.356 112.894C269.148 112.685 268.905 112.534 268.627 112.439C268.355 112.338 268.049 112.287 267.708 112.287C267.291 112.287 266.921 112.366 266.599 112.524C266.277 112.676 266.005 112.919 265.784 113.254C265.569 113.588 265.405 114.028 265.291 114.571C265.178 115.114 265.121 115.774 265.121 116.551V119.233C265.121 119.852 265.156 120.398 265.225 120.872C265.301 121.346 265.411 121.756 265.557 122.104C265.702 122.445 265.879 122.726 266.087 122.947C266.296 123.168 266.536 123.332 266.807 123.44C267.085 123.541 267.392 123.591 267.727 123.591C268.156 123.591 268.532 123.509 268.854 123.345C269.176 123.181 269.445 122.925 269.659 122.577C269.881 122.224 270.045 121.772 270.152 121.222C270.26 120.667 270.313 120.003 270.313 119.233Z" fill="#090B12"/>
<path d="M254.716 118.275L253.314 117.915L254.005 111.045H261.083V112.665H255.493L255.076 116.417C255.329 116.272 255.648 116.136 256.033 116.01C256.425 115.884 256.873 115.82 257.379 115.82C258.017 115.82 258.588 115.931 259.094 116.152C259.599 116.367 260.029 116.676 260.382 117.081C260.742 117.485 261.017 117.971 261.207 118.54C261.396 119.108 261.491 119.743 261.491 120.444C261.491 121.108 261.399 121.717 261.216 122.273C261.039 122.829 260.771 123.315 260.411 123.732C260.051 124.143 259.596 124.462 259.046 124.689C258.503 124.917 257.862 125.03 257.123 125.03C256.567 125.03 256.039 124.955 255.54 124.803C255.048 124.645 254.606 124.408 254.214 124.092C253.829 123.77 253.513 123.372 253.266 122.899C253.026 122.418 252.875 121.856 252.812 121.212H254.479C254.555 121.73 254.707 122.166 254.934 122.52C255.161 122.873 255.458 123.142 255.825 123.325C256.197 123.502 256.63 123.59 257.123 123.59C257.54 123.59 257.909 123.518 258.231 123.372C258.554 123.227 258.825 123.019 259.046 122.747C259.267 122.475 259.435 122.147 259.548 121.761C259.668 121.376 259.728 120.943 259.728 120.463C259.728 120.028 259.668 119.623 259.548 119.251C259.428 118.878 259.248 118.553 259.008 118.275C258.775 117.997 258.487 117.782 258.146 117.63C257.805 117.472 257.413 117.393 256.971 117.393C256.384 117.393 255.938 117.472 255.635 117.63C255.338 117.788 255.032 118.003 254.716 118.275Z" fill="#090B12"/>
<path d="M250.453 122.757V124.169C250.453 124.743 250.308 125.35 250.017 125.988C249.726 126.632 249.319 127.169 248.795 127.599L247.8 126.907C248.002 126.629 248.172 126.345 248.311 126.054C248.45 125.77 248.555 125.473 248.624 125.164C248.7 124.86 248.738 124.538 248.738 124.197V122.757H250.453Z" fill="#090B12"/>
<path d="M246.795 123.402V124.842H237.765V123.582L242.285 118.55C242.841 117.931 243.27 117.407 243.574 116.977C243.883 116.542 244.098 116.153 244.218 115.812C244.344 115.465 244.407 115.111 244.407 114.751C244.407 114.296 244.313 113.885 244.123 113.519C243.94 113.146 243.668 112.849 243.308 112.628C242.948 112.407 242.512 112.297 242.001 112.297C241.388 112.297 240.876 112.417 240.466 112.657C240.061 112.89 239.758 113.219 239.556 113.642C239.354 114.065 239.253 114.552 239.253 115.101H237.5C237.5 114.324 237.671 113.614 238.012 112.969C238.353 112.325 238.858 111.813 239.528 111.434C240.197 111.049 241.022 110.856 242.001 110.856C242.872 110.856 243.618 111.011 244.237 111.321C244.856 111.624 245.33 112.053 245.658 112.609C245.993 113.159 246.16 113.803 246.16 114.542C246.16 114.947 246.091 115.357 245.952 115.774C245.819 116.185 245.633 116.595 245.393 117.006C245.159 117.417 244.884 117.821 244.569 118.219C244.259 118.617 243.927 119.008 243.574 119.394L239.878 123.402H246.795Z" fill="#090B12"/>
<path d="M232.08 108.81V111.7H230.659V108.81H232.08ZM231.91 124.283V126.813H230.498V124.283H231.91ZM233.805 121.289C233.805 120.91 233.72 120.568 233.549 120.265C233.379 119.962 233.097 119.684 232.706 119.431C232.314 119.179 231.79 118.945 231.133 118.73C230.337 118.484 229.648 118.184 229.067 117.83C228.492 117.476 228.047 117.037 227.731 116.513C227.422 115.989 227.267 115.354 227.267 114.608C227.267 113.831 227.434 113.162 227.769 112.6C228.104 112.037 228.578 111.605 229.19 111.302C229.803 110.998 230.523 110.847 231.351 110.847C231.995 110.847 232.57 110.945 233.075 111.14C233.581 111.33 234.007 111.614 234.354 111.993C234.708 112.372 234.977 112.837 235.16 113.386C235.349 113.936 235.444 114.571 235.444 115.291H233.701C233.701 114.867 233.65 114.479 233.549 114.125C233.448 113.771 233.296 113.465 233.094 113.206C232.892 112.941 232.646 112.739 232.355 112.6C232.065 112.454 231.73 112.382 231.351 112.382C230.82 112.382 230.381 112.473 230.034 112.657C229.693 112.84 229.44 113.099 229.276 113.434C229.111 113.762 229.029 114.144 229.029 114.58C229.029 114.984 229.111 115.338 229.276 115.641C229.44 115.944 229.718 116.219 230.11 116.466C230.507 116.706 231.054 116.943 231.749 117.176C232.564 117.435 233.255 117.742 233.824 118.095C234.392 118.443 234.825 118.872 235.122 119.384C235.419 119.889 235.567 120.518 235.567 121.27C235.567 122.084 235.384 122.773 235.018 123.335C234.651 123.891 234.137 124.314 233.473 124.605C232.81 124.895 232.033 125.041 231.142 125.041C230.605 125.041 230.075 124.968 229.55 124.823C229.026 124.678 228.552 124.441 228.129 124.112C227.706 123.777 227.368 123.338 227.115 122.795C226.863 122.246 226.736 121.573 226.736 120.777H228.499C228.499 121.314 228.575 121.759 228.726 122.113C228.884 122.46 229.093 122.738 229.352 122.947C229.611 123.149 229.895 123.294 230.204 123.383C230.52 123.465 230.833 123.506 231.142 123.506C231.711 123.506 232.191 123.417 232.583 123.24C232.981 123.057 233.284 122.798 233.492 122.463C233.701 122.129 233.805 121.737 233.805 121.289Z" fill="#090B12"/>
<path d="M94.3839 116.109C94.3839 126.29 86.1303 134.544 75.9488 134.544C65.7674 134.544 57.5137 126.29 57.5137 116.109C57.5137 105.928 65.7674 97.6738 75.9488 97.6738C86.1303 97.6738 94.3839 105.928 94.3839 116.109Z" fill="#CBE0CC"/>
<path d="M77.3087 106.729V109.559H75.869V106.729H77.3087ZM77.1322 122.288V124.841H75.7018V122.288H77.1322ZM78.3396 119.182C78.3396 118.82 78.2715 118.505 78.1353 118.239C78.0053 117.972 77.7855 117.734 77.4758 117.524C77.1724 117.315 76.7638 117.114 76.2498 116.924C75.4511 116.625 74.7514 116.298 74.1507 115.943C73.5501 115.581 73.0826 115.133 72.7482 114.599C72.42 114.066 72.256 113.392 72.256 112.579C72.256 111.798 72.4324 111.122 72.7854 110.55C73.1445 109.972 73.643 109.527 74.2808 109.216C74.9185 108.899 75.6585 108.74 76.5006 108.74C77.157 108.74 77.7452 108.841 78.2653 109.045C78.7917 109.242 79.2406 109.531 79.6121 109.912C79.9898 110.293 80.2777 110.763 80.4759 111.322C80.6802 111.874 80.7824 112.506 80.7824 113.218H78.3303C78.3303 112.824 78.287 112.475 78.2003 112.17C78.1136 111.865 77.9898 111.608 77.8288 111.398C77.6678 111.182 77.4728 111.02 77.2436 110.912C77.0207 110.804 76.7669 110.75 76.482 110.75C76.0734 110.75 75.7359 110.829 75.4696 110.988C75.2096 111.147 75.0176 111.363 74.8938 111.636C74.7761 111.909 74.7173 112.224 74.7173 112.579C74.7173 112.922 74.7792 113.224 74.9031 113.484C75.0331 113.739 75.2498 113.97 75.5532 114.18C75.8628 114.39 76.287 114.602 76.8257 114.818C77.6306 115.123 78.3303 115.46 78.9248 115.828C79.5192 116.19 79.9805 116.635 80.3087 117.162C80.6369 117.689 80.801 118.356 80.801 119.163C80.801 119.989 80.6152 120.687 80.2437 121.259C79.8784 121.831 79.3644 122.266 78.7019 122.564C78.0393 122.863 77.2684 123.012 76.3891 123.012C75.8257 123.012 75.2684 122.936 74.7173 122.783C74.1662 122.631 73.6646 122.383 73.2126 122.04C72.7668 121.691 72.4108 121.23 72.1445 120.659C71.8782 120.081 71.7451 119.372 71.7451 118.534H74.2065C74.2065 119.017 74.2684 119.417 74.3922 119.734C74.5161 120.052 74.6832 120.306 74.8938 120.497C75.1043 120.681 75.3396 120.811 75.5997 120.887C75.8597 120.964 76.1229 121.002 76.3891 121.002C76.8226 121.002 77.1817 120.925 77.4666 120.773C77.7576 120.621 77.9743 120.408 78.1167 120.135C78.2653 119.855 78.3396 119.538 78.3396 119.182Z" fill="white"/>
<path d="M284.014 290.844V292.947C284.014 294.078 283.913 295.032 283.711 295.809C283.509 296.586 283.218 297.211 282.839 297.685C282.46 298.159 282.002 298.503 281.465 298.718C280.935 298.926 280.335 299.031 279.665 299.031C279.134 299.031 278.645 298.964 278.196 298.832C277.748 298.699 277.344 298.487 276.983 298.197C276.63 297.9 276.327 297.514 276.074 297.041C275.821 296.567 275.629 295.992 275.496 295.316C275.363 294.64 275.297 293.851 275.297 292.947V290.844C275.297 289.713 275.398 288.766 275.6 288.001C275.809 287.237 276.102 286.624 276.481 286.163C276.86 285.696 277.315 285.361 277.846 285.159C278.383 284.957 278.983 284.855 279.646 284.855C280.183 284.855 280.676 284.922 281.124 285.054C281.579 285.181 281.983 285.386 282.337 285.67C282.691 285.948 282.991 286.321 283.237 286.788C283.49 287.25 283.683 287.815 283.815 288.485C283.948 289.154 284.014 289.941 284.014 290.844ZM282.252 293.232V290.55C282.252 289.931 282.214 289.388 282.138 288.92C282.069 288.447 281.964 288.042 281.825 287.708C281.686 287.373 281.51 287.101 281.295 286.893C281.086 286.684 280.843 286.533 280.565 286.438C280.294 286.337 279.987 286.286 279.646 286.286C279.229 286.286 278.86 286.365 278.537 286.523C278.215 286.675 277.944 286.918 277.723 287.253C277.508 287.588 277.344 288.027 277.23 288.57C277.116 289.113 277.059 289.773 277.059 290.55V293.232C277.059 293.851 277.094 294.397 277.164 294.871C277.239 295.345 277.35 295.755 277.495 296.103C277.64 296.444 277.817 296.725 278.026 296.946C278.234 297.167 278.474 297.331 278.746 297.439C279.024 297.54 279.33 297.59 279.665 297.59C280.095 297.59 280.47 297.508 280.793 297.344C281.115 297.18 281.383 296.924 281.598 296.576C281.819 296.223 281.983 295.771 282.091 295.221C282.198 294.666 282.252 294.002 282.252 293.232Z" fill="#090B12"/>
<path d="M273.098 290.844V292.947C273.098 294.078 272.997 295.032 272.795 295.809C272.593 296.586 272.302 297.211 271.923 297.685C271.544 298.159 271.086 298.503 270.549 298.718C270.019 298.926 269.419 299.031 268.749 299.031C268.218 299.031 267.729 298.964 267.28 298.832C266.832 298.699 266.428 298.487 266.067 298.197C265.714 297.9 265.411 297.514 265.158 297.041C264.905 296.567 264.712 295.992 264.58 295.316C264.447 294.64 264.381 293.851 264.381 292.947V290.844C264.381 289.713 264.482 288.766 264.684 288.001C264.893 287.237 265.186 286.624 265.565 286.163C265.944 285.696 266.399 285.361 266.93 285.159C267.467 284.957 268.067 284.855 268.73 284.855C269.267 284.855 269.76 284.922 270.208 285.054C270.663 285.181 271.067 285.386 271.421 285.67C271.775 285.948 272.075 286.321 272.321 286.788C272.574 287.25 272.766 287.815 272.899 288.485C273.032 289.154 273.098 289.941 273.098 290.844ZM271.336 293.232V290.55C271.336 289.931 271.298 289.388 271.222 288.92C271.153 288.447 271.048 288.042 270.909 287.708C270.77 287.373 270.593 287.101 270.379 286.893C270.17 286.684 269.927 286.533 269.649 286.438C269.377 286.337 269.071 286.286 268.73 286.286C268.313 286.286 267.944 286.365 267.621 286.523C267.299 286.675 267.028 286.918 266.807 287.253C266.592 287.588 266.428 288.027 266.314 288.57C266.2 289.113 266.143 289.773 266.143 290.55V293.232C266.143 293.851 266.178 294.397 266.247 294.871C266.323 295.345 266.434 295.755 266.579 296.103C266.724 296.444 266.901 296.725 267.11 296.946C267.318 297.167 267.558 297.331 267.83 297.439C268.108 297.54 268.414 297.59 268.749 297.59C269.179 297.59 269.554 297.508 269.877 297.344C270.199 297.18 270.467 296.924 270.682 296.576C270.903 296.223 271.067 295.771 271.175 295.221C271.282 294.666 271.336 294.002 271.336 293.232Z" fill="#090B12"/>
<path d="M262.183 290.844V292.947C262.183 294.078 262.082 295.032 261.88 295.809C261.678 296.586 261.387 297.211 261.008 297.685C260.629 298.159 260.171 298.503 259.634 298.718C259.104 298.926 258.504 299.031 257.834 299.031C257.303 299.031 256.814 298.964 256.365 298.832C255.917 298.699 255.512 298.487 255.152 298.197C254.799 297.9 254.495 297.514 254.243 297.041C253.99 296.567 253.797 295.992 253.665 295.316C253.532 294.64 253.466 293.851 253.466 292.947V290.844C253.466 289.713 253.567 288.766 253.769 288.001C253.977 287.237 254.271 286.624 254.65 286.163C255.029 285.696 255.484 285.361 256.015 285.159C256.552 284.957 257.152 284.855 257.815 284.855C258.352 284.855 258.845 284.922 259.293 285.054C259.748 285.181 260.152 285.386 260.506 285.67C260.86 285.948 261.16 286.321 261.406 286.788C261.659 287.25 261.851 287.815 261.984 288.485C262.117 289.154 262.183 289.941 262.183 290.844ZM260.421 293.232V290.55C260.421 289.931 260.383 289.388 260.307 288.92C260.237 288.447 260.133 288.042 259.994 287.708C259.855 287.373 259.678 287.101 259.464 286.893C259.255 286.684 259.012 286.533 258.734 286.438C258.462 286.337 258.156 286.286 257.815 286.286C257.398 286.286 257.029 286.365 256.706 286.523C256.384 286.675 256.113 286.918 255.891 287.253C255.677 287.588 255.512 288.027 255.399 288.57C255.285 289.113 255.228 289.773 255.228 290.55V293.232C255.228 293.851 255.263 294.397 255.332 294.871C255.408 295.345 255.519 295.755 255.664 296.103C255.809 296.444 255.986 296.725 256.195 296.946C256.403 297.167 256.643 297.331 256.915 297.439C257.193 297.54 257.499 297.59 257.834 297.59C258.263 297.59 258.639 297.508 258.961 297.344C259.284 297.18 259.552 296.924 259.767 296.576C259.988 296.223 260.152 295.771 260.26 295.221C260.367 294.666 260.421 294.002 260.421 293.232Z" fill="#090B12"/>
<path d="M251.475 296.757V298.169C251.475 298.743 251.33 299.35 251.039 299.988C250.749 300.632 250.341 301.169 249.817 301.599L248.822 300.907C249.024 300.629 249.195 300.345 249.334 300.054C249.473 299.77 249.577 299.473 249.647 299.164C249.722 298.86 249.76 298.538 249.76 298.197V296.757H251.475Z" fill="#090B12"/>
<path d="M240.996 292.275L239.594 291.915L240.286 285.045H247.364V286.665H241.773L241.356 290.417C241.609 290.272 241.928 290.136 242.313 290.01C242.705 289.884 243.154 289.82 243.659 289.82C244.297 289.82 244.869 289.931 245.374 290.152C245.879 290.367 246.309 290.676 246.663 291.081C247.023 291.485 247.297 291.971 247.487 292.54C247.676 293.108 247.771 293.743 247.771 294.444C247.771 295.108 247.68 295.717 247.496 296.273C247.32 296.829 247.051 297.315 246.691 297.732C246.331 298.143 245.876 298.462 245.327 298.689C244.783 298.917 244.142 299.03 243.403 299.03C242.847 299.03 242.32 298.955 241.821 298.803C241.328 298.645 240.886 298.408 240.494 298.092C240.109 297.77 239.793 297.372 239.547 296.899C239.307 296.418 239.155 295.856 239.092 295.212H240.759C240.835 295.73 240.987 296.166 241.214 296.52C241.442 296.873 241.739 297.142 242.105 297.325C242.478 297.502 242.91 297.59 243.403 297.59C243.82 297.59 244.19 297.518 244.512 297.372C244.834 297.227 245.105 297.019 245.327 296.747C245.548 296.475 245.715 296.147 245.829 295.761C245.949 295.376 246.009 294.943 246.009 294.463C246.009 294.028 245.949 293.623 245.829 293.251C245.709 292.878 245.529 292.553 245.289 292.275C245.055 291.997 244.767 291.782 244.426 291.63C244.085 291.472 243.694 291.393 243.251 291.393C242.664 291.393 242.219 291.472 241.915 291.63C241.619 291.788 241.312 292.003 240.996 292.275Z" fill="#090B12"/>
<path d="M237.026 298.841H227.238V297.353H237.026V298.841ZM233.568 292.938H227.2V291.45H233.568V292.938ZM230.46 288.996L230.668 295.032C230.674 295.626 230.589 296.182 230.412 296.7C230.235 297.211 229.97 297.597 229.616 297.856L227.968 297.353C228.189 297.297 228.362 297.139 228.489 296.88C228.621 296.614 228.713 296.311 228.764 295.97C228.82 295.629 228.849 295.319 228.849 295.041L228.64 288.996C228.64 288.124 228.824 287.382 229.19 286.769C229.556 286.15 230.055 285.677 230.687 285.348C231.325 285.02 232.045 284.855 232.847 284.855C233.675 284.855 234.379 285.01 234.96 285.32C235.542 285.629 235.987 286.062 236.296 286.618C236.606 287.167 236.761 287.809 236.761 288.541H234.942C234.942 288.011 234.834 287.584 234.619 287.262C234.411 286.94 234.136 286.706 233.795 286.561C233.454 286.416 233.088 286.343 232.696 286.343C232.279 286.343 231.9 286.447 231.559 286.656C231.224 286.858 230.956 287.158 230.753 287.556C230.558 287.948 230.46 288.428 230.46 288.996Z" fill="#090B12"/>
<path d="M130.338 293.218H127.389V292.028H130.338C130.909 292.028 131.372 291.937 131.725 291.755C132.079 291.573 132.337 291.321 132.499 290.997C132.665 290.674 132.749 290.305 132.749 289.891C132.749 289.512 132.665 289.155 132.499 288.822C132.337 288.488 132.079 288.22 131.725 288.018C131.372 287.811 130.909 287.707 130.338 287.707H127.731V297.547H126.268V286.51H130.338C131.172 286.51 131.877 286.654 132.453 286.942C133.029 287.23 133.466 287.629 133.764 288.14C134.063 288.645 134.212 289.223 134.212 289.875C134.212 290.583 134.063 291.187 133.764 291.687C133.466 292.187 133.029 292.569 132.453 292.832C131.877 293.089 131.172 293.218 130.338 293.218Z" fill="#4E4E4E"/>
<path d="M120.529 292.384H117.732L117.717 291.21H120.256C120.675 291.21 121.042 291.139 121.355 290.997C121.668 290.856 121.911 290.654 122.083 290.391C122.26 290.123 122.348 289.805 122.348 289.436C122.348 289.031 122.27 288.703 122.113 288.45C121.962 288.193 121.727 288.006 121.408 287.889C121.095 287.768 120.696 287.707 120.21 287.707H118.058V297.547H116.595V286.51H120.21C120.776 286.51 121.282 286.568 121.727 286.684C122.171 286.795 122.548 286.972 122.856 287.215C123.169 287.452 123.407 287.755 123.569 288.124C123.73 288.493 123.811 288.935 123.811 289.451C123.811 289.906 123.695 290.318 123.462 290.686C123.23 291.05 122.907 291.348 122.492 291.581C122.083 291.813 121.603 291.962 121.052 292.028L120.529 292.384ZM120.461 297.547H117.156L117.982 296.356H120.461C120.926 296.356 121.32 296.276 121.643 296.114C121.972 295.952 122.222 295.725 122.394 295.432C122.565 295.134 122.651 294.782 122.651 294.378C122.651 293.969 122.578 293.615 122.432 293.317C122.285 293.019 122.055 292.789 121.742 292.627C121.428 292.465 121.024 292.384 120.529 292.384H118.444L118.459 291.21H121.31L121.62 291.634C122.151 291.679 122.601 291.831 122.97 292.089C123.339 292.341 123.619 292.665 123.811 293.059C124.008 293.453 124.107 293.888 124.107 294.363C124.107 295.05 123.955 295.631 123.652 296.106C123.354 296.576 122.932 296.935 122.386 297.183C121.84 297.425 121.198 297.547 120.461 297.547Z" fill="#4E4E4E"/>
<path d="M114.169 292.051V296.091C114.032 296.294 113.815 296.521 113.517 296.774C113.219 297.021 112.807 297.239 112.281 297.426C111.761 297.607 111.089 297.698 110.265 297.698C109.593 297.698 108.974 297.582 108.408 297.35C107.847 297.112 107.359 296.769 106.945 296.319C106.536 295.864 106.217 295.313 105.99 294.666C105.767 294.014 105.656 293.277 105.656 292.453V291.596C105.656 290.773 105.752 290.037 105.944 289.39C106.141 288.744 106.429 288.195 106.808 287.746C107.187 287.291 107.652 286.947 108.203 286.715C108.754 286.477 109.386 286.358 110.098 286.358C110.942 286.358 111.647 286.505 112.213 286.798C112.784 287.086 113.229 287.485 113.547 287.996C113.871 288.506 114.078 289.087 114.169 289.739H112.706C112.64 289.34 112.509 288.976 112.312 288.648C112.12 288.319 111.844 288.056 111.485 287.859C111.127 287.657 110.664 287.556 110.098 287.556C109.588 287.556 109.146 287.65 108.772 287.837C108.398 288.024 108.09 288.291 107.847 288.64C107.604 288.989 107.422 289.411 107.301 289.906C107.185 290.401 107.127 290.96 107.127 291.581V292.453C107.127 293.09 107.2 293.658 107.347 294.158C107.498 294.659 107.713 295.086 107.991 295.44C108.269 295.788 108.6 296.054 108.984 296.235C109.373 296.417 109.803 296.508 110.273 296.508C110.793 296.508 111.215 296.465 111.539 296.379C111.862 296.289 112.115 296.182 112.297 296.061C112.478 295.935 112.617 295.816 112.713 295.705V293.234H110.159V292.051H114.169Z" fill="#4E4E4E"/>
<path d="M94.381 292.048C94.381 302.23 86.1273 310.484 75.9459 310.484C65.7644 310.484 57.5107 302.23 57.5107 292.048C57.5107 281.867 65.7644 273.613 75.9459 273.613C86.1273 273.613 94.381 281.867 94.381 292.048Z" fill="#CBE0CC"/>
<path d="M80.7974 298.84H71.1315V296.85H80.7974V298.84ZM77.9583 293.397H71.0947V291.454H77.9583V293.397ZM74.9997 289.271L75.2202 294.907C75.2202 295.509 75.1008 296.034 74.8619 296.482C74.6291 296.93 74.234 297.289 73.6766 297.56L71.9676 296.85C72.1636 296.795 72.3106 296.672 72.4086 296.482C72.5128 296.286 72.5801 296.055 72.6108 295.791C72.6475 295.527 72.6659 295.273 72.6659 295.027L72.4821 289.271C72.4821 288.424 72.6567 287.702 73.0059 287.107C73.355 286.505 73.8389 286.048 74.4576 285.735C75.0763 285.415 75.7929 285.256 76.6076 285.256C77.4836 285.256 78.2247 285.412 78.8312 285.726C79.4376 286.039 79.9001 286.478 80.2186 287.042C80.5371 287.607 80.6964 288.264 80.6964 289.013H78.2707C78.2707 288.577 78.1911 288.23 78.0318 287.973C77.8787 287.715 77.6735 287.531 77.4162 287.42C77.1589 287.303 76.8802 287.245 76.5801 287.245C76.2799 287.245 76.0073 287.322 75.7623 287.475C75.5234 287.623 75.3366 287.85 75.2018 288.157C75.0671 288.458 74.9997 288.829 74.9997 289.271Z" fill="white"/>
<path d="M124.903 169.433H128.557C129.386 169.433 130.086 169.559 130.657 169.812C131.233 170.064 131.67 170.438 131.968 170.934C132.271 171.424 132.423 172.028 132.423 172.745C132.423 173.251 132.319 173.713 132.112 174.132C131.91 174.547 131.617 174.9 131.233 175.194C130.854 175.482 130.399 175.696 129.868 175.838L129.459 175.997H126.025L126.01 174.807H128.602C129.128 174.807 129.565 174.716 129.914 174.534C130.263 174.347 130.525 174.097 130.702 173.784C130.879 173.47 130.968 173.124 130.968 172.745C130.968 172.321 130.884 171.949 130.717 171.631C130.551 171.313 130.288 171.067 129.929 170.896C129.575 170.719 129.118 170.63 128.557 170.63H126.366V180.469H124.903V169.433ZM131.354 180.469L128.671 175.466L130.194 175.459L132.916 180.378V180.469H131.354Z" fill="#4E4E4E"/>
<path d="M121.15 169.433H122.606V176.899C122.606 177.728 122.421 178.418 122.052 178.969C121.684 179.519 121.193 179.934 120.582 180.212C119.975 180.485 119.316 180.621 118.603 180.621C117.855 180.621 117.178 180.485 116.572 180.212C115.971 179.934 115.493 179.519 115.139 178.969C114.791 178.418 114.616 177.728 114.616 176.899V169.433H116.064V176.899C116.064 177.475 116.17 177.95 116.382 178.324C116.595 178.698 116.89 178.976 117.269 179.158C117.653 179.34 118.098 179.431 118.603 179.431C119.114 179.431 119.559 179.34 119.938 179.158C120.322 178.976 120.62 178.698 120.832 178.324C121.044 177.95 121.15 177.475 121.15 176.899V169.433Z" fill="#4E4E4E"/>
<path d="M113.024 179.279V180.469H107.18V179.279H113.024ZM107.476 169.433V180.469H106.013V169.433H107.476ZM112.251 174.178V175.368H107.18V174.178H112.251ZM112.949 169.433V170.63H107.18V169.433H112.949Z" fill="#4E4E4E"/>
<path d="M94.381 175.617C94.381 185.798 86.1273 194.052 75.9459 194.052C65.7644 194.052 57.5107 185.798 57.5107 175.617C57.5107 165.435 65.7644 157.182 75.9459 157.182C86.1273 157.182 94.381 165.435 94.381 175.617Z" fill="#CBE0CC"/>
<path d="M79.4198 181.835C79.8337 181.835 80.232 181.808 80.6146 181.753C80.9972 181.691 81.3643 181.598 81.7157 181.473L82.0905 183.998C81.6298 184.107 81.1495 184.193 80.6497 184.255C80.15 184.317 79.6463 184.349 79.1387 184.349C78.1626 184.349 77.2684 184.212 76.4563 183.94C75.6442 183.667 74.9374 183.254 74.3362 182.7C73.7427 182.147 73.2819 181.457 72.954 180.631C72.626 179.805 72.462 178.847 72.462 177.755V173.758C72.462 172.62 72.626 171.622 72.954 170.765C73.2819 169.908 73.7505 169.191 74.3596 168.614C74.9765 168.037 75.7027 167.605 76.5383 167.316C77.3817 167.028 78.3109 166.884 79.3261 166.884C79.7947 166.884 80.2554 166.919 80.7083 166.989C81.169 167.051 81.6298 167.137 82.0905 167.246L81.7157 169.783C81.3877 169.674 81.0285 169.584 80.638 169.514C80.2476 169.444 79.8571 169.409 79.4667 169.409C78.881 169.409 78.3539 169.495 77.8854 169.666C77.4168 169.83 77.0186 170.087 76.6906 170.438C76.3626 170.78 76.1127 171.225 75.9409 171.77C75.7769 172.316 75.6949 172.97 75.6949 173.734V177.755C75.6949 178.504 75.7808 179.139 75.9526 179.661C76.1322 180.175 76.386 180.596 76.714 180.923C77.042 181.243 77.4363 181.477 77.8971 181.625C78.3578 181.765 78.8654 181.835 79.4198 181.835ZM79.7361 173.161V174.821H70.4473V173.161H79.7361ZM79.7361 176.329V178.001H70.4473V176.329H79.7361Z" fill="white"/>
<path d="M283.637 174.09V176.193C283.637 177.324 283.536 178.278 283.334 179.055C283.132 179.832 282.841 180.457 282.462 180.931C282.083 181.405 281.625 181.749 281.088 181.964C280.558 182.172 279.958 182.277 279.288 182.277C278.757 182.277 278.268 182.21 277.819 182.078C277.371 181.945 276.967 181.733 276.607 181.443C276.253 181.146 275.95 180.761 275.697 180.287C275.444 179.813 275.252 179.238 275.119 178.562C274.986 177.886 274.92 177.097 274.92 176.193V174.09C274.92 172.959 275.021 172.012 275.223 171.247C275.432 170.483 275.725 169.87 276.104 169.409C276.483 168.942 276.938 168.607 277.469 168.405C278.006 168.203 278.606 168.102 279.269 168.102C279.806 168.102 280.299 168.168 280.747 168.301C281.202 168.427 281.606 168.632 281.96 168.916C282.314 169.194 282.614 169.567 282.86 170.035C283.113 170.496 283.306 171.061 283.438 171.731C283.571 172.4 283.637 173.187 283.637 174.09ZM281.875 176.478V173.796C281.875 173.177 281.837 172.634 281.761 172.166C281.692 171.693 281.587 171.288 281.448 170.954C281.309 170.619 281.133 170.347 280.918 170.139C280.709 169.93 280.466 169.779 280.188 169.684C279.917 169.583 279.61 169.532 279.269 169.532C278.852 169.532 278.483 169.611 278.16 169.769C277.838 169.921 277.567 170.164 277.346 170.499C277.131 170.834 276.967 171.273 276.853 171.816C276.739 172.359 276.682 173.019 276.682 173.796V176.478C276.682 177.097 276.717 177.643 276.787 178.117C276.862 178.591 276.973 179.001 277.118 179.349C277.263 179.69 277.44 179.971 277.649 180.192C277.857 180.413 278.097 180.577 278.369 180.685C278.647 180.786 278.953 180.836 279.288 180.836C279.718 180.836 280.093 180.754 280.416 180.59C280.738 180.426 281.006 180.17 281.221 179.823C281.442 179.469 281.606 179.017 281.714 178.468C281.821 177.912 281.875 177.248 281.875 176.478Z" fill="#090B12"/>
<path d="M272.722 174.09V176.193C272.722 177.324 272.621 178.278 272.419 179.055C272.217 179.832 271.926 180.457 271.547 180.931C271.168 181.405 270.71 181.749 270.173 181.964C269.643 182.172 269.043 182.277 268.373 182.277C267.842 182.277 267.353 182.21 266.904 182.078C266.456 181.945 266.052 181.733 265.691 181.443C265.338 181.146 265.035 180.761 264.782 180.287C264.529 179.813 264.337 179.238 264.204 178.562C264.071 177.886 264.005 177.097 264.005 176.193V174.09C264.005 172.959 264.106 172.012 264.308 171.247C264.517 170.483 264.81 169.87 265.189 169.409C265.568 168.942 266.023 168.607 266.554 168.405C267.091 168.203 267.691 168.102 268.354 168.102C268.891 168.102 269.384 168.168 269.832 168.301C270.287 168.427 270.691 168.632 271.045 168.916C271.399 169.194 271.699 169.567 271.945 170.035C272.198 170.496 272.391 171.061 272.523 171.731C272.656 172.4 272.722 173.187 272.722 174.09ZM270.96 176.478V173.796C270.96 173.177 270.922 172.634 270.846 172.166C270.777 171.693 270.672 171.288 270.533 170.954C270.394 170.619 270.218 170.347 270.003 170.139C269.794 169.93 269.551 169.779 269.273 169.684C269.002 169.583 268.695 169.532 268.354 169.532C267.937 169.532 267.568 169.611 267.245 169.769C266.923 169.921 266.652 170.164 266.431 170.499C266.216 170.834 266.052 171.273 265.938 171.816C265.824 172.359 265.767 173.019 265.767 173.796V176.478C265.767 177.097 265.802 177.643 265.872 178.117C265.947 178.591 266.058 179.001 266.203 179.349C266.348 179.69 266.525 179.971 266.734 180.192C266.942 180.413 267.182 180.577 267.454 180.685C267.732 180.786 268.038 180.836 268.373 180.836C268.803 180.836 269.178 180.754 269.501 180.59C269.823 180.426 270.091 180.17 270.306 179.823C270.527 179.469 270.691 179.017 270.799 178.468C270.906 177.912 270.96 177.248 270.96 176.478Z" fill="#090B12"/>
<path d="M262.015 180.003V181.415C262.015 181.99 261.87 182.596 261.58 183.234C261.289 183.878 260.882 184.415 260.357 184.845L259.362 184.153C259.564 183.875 259.735 183.591 259.874 183.3C260.013 183.016 260.117 182.719 260.187 182.41C260.262 182.106 260.3 181.784 260.3 181.443V180.003H262.015Z" fill="#090B12"/>
<path d="M258.357 180.647V182.087H249.327V180.827L253.847 175.796C254.402 175.176 254.832 174.652 255.135 174.223C255.445 173.787 255.659 173.398 255.78 173.057C255.906 172.71 255.969 172.356 255.969 171.996C255.969 171.541 255.874 171.13 255.685 170.764C255.502 170.391 255.23 170.095 254.87 169.873C254.51 169.652 254.074 169.542 253.562 169.542C252.95 169.542 252.438 169.662 252.027 169.902C251.623 170.136 251.32 170.464 251.118 170.887C250.916 171.311 250.814 171.797 250.814 172.346H249.062C249.062 171.57 249.232 170.859 249.573 170.215C249.914 169.57 250.42 169.059 251.089 168.68C251.759 168.294 252.583 168.102 253.562 168.102C254.434 168.102 255.179 168.256 255.798 168.566C256.418 168.869 256.891 169.299 257.22 169.854C257.555 170.404 257.722 171.048 257.722 171.787C257.722 172.192 257.652 172.602 257.513 173.019C257.381 173.43 257.194 173.84 256.954 174.251C256.721 174.662 256.446 175.066 256.13 175.464C255.821 175.862 255.489 176.253 255.135 176.639L251.44 180.647H258.357Z" fill="#090B12"/>
<path d="M244.163 168.216V182.088H242.41V170.405L238.876 171.693V170.111L243.888 168.216H244.163Z" fill="#090B12"/>
<path d="M234.062 180.798C234.429 180.798 234.786 180.77 235.133 180.713C235.481 180.656 235.812 180.577 236.128 180.476L236.318 181.992C235.964 182.081 235.594 182.15 235.209 182.201C234.824 182.251 234.435 182.277 234.043 182.277C233.292 182.277 232.603 182.163 231.978 181.935C231.353 181.702 230.812 181.358 230.358 180.903C229.903 180.442 229.549 179.87 229.296 179.188C229.05 178.499 228.927 177.697 228.927 176.781V173.626C228.927 172.703 229.05 171.898 229.296 171.209C229.543 170.521 229.893 169.946 230.348 169.485C230.803 169.024 231.34 168.68 231.959 168.452C232.584 168.218 233.276 168.102 234.034 168.102C234.432 168.102 234.814 168.13 235.181 168.187C235.553 168.237 235.932 168.307 236.318 168.395L236.128 169.921C235.819 169.82 235.487 169.741 235.133 169.684C234.779 169.621 234.419 169.589 234.053 169.589C233.548 169.589 233.09 169.671 232.679 169.836C232.275 170 231.927 170.246 231.637 170.575C231.353 170.903 231.135 171.32 230.983 171.825C230.831 172.331 230.756 172.924 230.756 173.607V176.781C230.756 177.463 230.831 178.057 230.983 178.562C231.141 179.068 231.365 179.485 231.656 179.813C231.946 180.142 232.294 180.388 232.698 180.552C233.109 180.716 233.563 180.798 234.062 180.798ZM234.394 173.303V174.488H227.24V173.303H234.394ZM234.394 175.777V176.951H227.24V175.777H234.394Z" fill="#090B12"/>
<path d="M283.697 231.983V234.086C283.697 235.217 283.596 236.171 283.394 236.948C283.191 237.725 282.901 238.35 282.522 238.824C282.143 239.297 281.685 239.642 281.148 239.856C280.617 240.065 280.017 240.169 279.348 240.169C278.817 240.169 278.327 240.103 277.879 239.97C277.43 239.838 277.026 239.626 276.666 239.335C276.312 239.038 276.009 238.653 275.756 238.179C275.504 237.706 275.311 237.131 275.178 236.455C275.046 235.779 274.979 234.989 274.979 234.086V231.983C274.979 230.852 275.081 229.904 275.283 229.14C275.491 228.376 275.785 227.763 276.164 227.302C276.543 226.834 276.998 226.499 277.528 226.297C278.065 226.095 278.665 225.994 279.329 225.994C279.866 225.994 280.358 226.06 280.807 226.193C281.262 226.319 281.666 226.525 282.02 226.809C282.373 227.087 282.673 227.46 282.92 227.927C283.172 228.388 283.365 228.954 283.498 229.623C283.63 230.293 283.697 231.079 283.697 231.983ZM281.934 234.37V231.689C281.934 231.07 281.896 230.526 281.821 230.059C281.751 229.585 281.647 229.181 281.508 228.846C281.369 228.511 281.192 228.24 280.977 228.031C280.769 227.823 280.526 227.671 280.248 227.577C279.976 227.475 279.67 227.425 279.329 227.425C278.912 227.425 278.542 227.504 278.22 227.662C277.898 227.813 277.626 228.057 277.405 228.391C277.19 228.726 277.026 229.165 276.912 229.708C276.799 230.252 276.742 230.912 276.742 231.689V234.37C276.742 234.989 276.777 235.536 276.846 236.01C276.922 236.483 277.032 236.894 277.178 237.241C277.323 237.582 277.5 237.864 277.708 238.085C277.917 238.306 278.157 238.47 278.428 238.577C278.706 238.678 279.013 238.729 279.348 238.729C279.777 238.729 280.153 238.647 280.475 238.483C280.797 238.318 281.066 238.063 281.281 237.715C281.502 237.361 281.666 236.91 281.773 236.36C281.881 235.804 281.934 235.141 281.934 234.37Z" fill="#090B12"/>
<path d="M270.849 226.164H271.001V227.652H270.849C269.921 227.652 269.144 227.803 268.518 228.106C267.893 228.403 267.397 228.805 267.031 229.31C266.664 229.809 266.399 230.371 266.235 230.996C266.077 231.622 265.998 232.257 265.998 232.901V234.929C265.998 235.541 266.07 236.085 266.216 236.558C266.361 237.026 266.56 237.421 266.813 237.743C267.065 238.065 267.35 238.308 267.665 238.472C267.988 238.637 268.322 238.719 268.67 238.719C269.074 238.719 269.434 238.643 269.75 238.491C270.066 238.334 270.331 238.116 270.546 237.838C270.767 237.553 270.934 237.219 271.048 236.833C271.162 236.448 271.219 236.025 271.219 235.564C271.219 235.153 271.168 234.758 271.067 234.379C270.966 233.994 270.811 233.653 270.603 233.356C270.394 233.053 270.132 232.816 269.816 232.645C269.507 232.468 269.137 232.38 268.708 232.38C268.221 232.38 267.766 232.5 267.343 232.74C266.926 232.974 266.582 233.283 266.31 233.668C266.045 234.048 265.894 234.461 265.856 234.91L264.927 234.9C265.015 234.193 265.18 233.59 265.42 233.091C265.666 232.585 265.969 232.175 266.329 231.859C266.696 231.537 267.103 231.303 267.552 231.158C268.007 231.006 268.487 230.93 268.992 230.93C269.68 230.93 270.274 231.06 270.773 231.319C271.272 231.578 271.683 231.925 272.005 232.361C272.327 232.79 272.564 233.277 272.716 233.82C272.874 234.357 272.953 234.91 272.953 235.478C272.953 236.129 272.861 236.738 272.678 237.307C272.495 237.876 272.22 238.375 271.853 238.804C271.493 239.234 271.048 239.568 270.517 239.808C269.987 240.049 269.371 240.169 268.67 240.169C267.924 240.169 267.274 240.017 266.718 239.714C266.162 239.404 265.701 238.994 265.334 238.482C264.968 237.97 264.693 237.402 264.51 236.776C264.327 236.151 264.235 235.516 264.235 234.872V234.048C264.235 233.075 264.333 232.121 264.529 231.186C264.725 230.251 265.063 229.405 265.543 228.647C266.029 227.889 266.702 227.285 267.561 226.837C268.42 226.388 269.516 226.164 270.849 226.164Z" fill="#090B12"/>
<path d="M255.423 233.413L254.021 233.053L254.712 226.184H261.79V227.804H256.2L255.783 231.556C256.036 231.411 256.355 231.275 256.74 231.149C257.132 231.022 257.58 230.959 258.086 230.959C258.724 230.959 259.295 231.07 259.801 231.291C260.306 231.506 260.736 231.815 261.089 232.219C261.449 232.624 261.724 233.11 261.914 233.679C262.103 234.247 262.198 234.882 262.198 235.583C262.198 236.246 262.106 236.856 261.923 237.412C261.746 237.968 261.478 238.454 261.118 238.871C260.758 239.282 260.303 239.601 259.753 239.828C259.21 240.055 258.569 240.169 257.83 240.169C257.274 240.169 256.746 240.093 256.247 239.942C255.755 239.784 255.313 239.547 254.921 239.231C254.536 238.909 254.22 238.511 253.973 238.037C253.733 237.557 253.582 236.995 253.519 236.351H255.186C255.262 236.869 255.414 237.304 255.641 237.658C255.868 238.012 256.165 238.28 256.532 238.464C256.904 238.64 257.337 238.729 257.83 238.729C258.247 238.729 258.616 238.656 258.938 238.511C259.261 238.366 259.532 238.157 259.753 237.886C259.974 237.614 260.142 237.285 260.255 236.9C260.376 236.515 260.436 236.082 260.436 235.602C260.436 235.166 260.376 234.762 260.255 234.389C260.135 234.017 259.955 233.691 259.715 233.413C259.482 233.135 259.194 232.921 258.853 232.769C258.512 232.611 258.12 232.532 257.678 232.532C257.091 232.532 256.645 232.611 256.342 232.769C256.045 232.927 255.739 233.142 255.423 233.413Z" fill="#090B12"/>
<path d="M250.913 232.996V234.181H243.001V232.996H250.913ZM250.913 235.754V236.929H243.001V235.754H250.913ZM246.412 233.669L249.889 226.184H251.908L247.805 234.257H246.639L246.412 233.669ZM244.062 226.184L247.558 233.735L247.284 234.257H246.128L242.006 226.184H244.062ZM247.833 232.646V239.98H246.014V232.646H247.833Z" fill="#090B12"/>
<path d="M124.879 227.649L127.745 233.191L130.618 227.649H132.278L128.472 234.563V238.686H127.009V234.563L123.204 227.649H124.879Z" fill="#4E4E4E"/>
<path d="M118.649 234.358H115.7V233.168H118.649C119.22 233.168 119.682 233.077 120.036 232.895C120.39 232.713 120.647 232.46 120.809 232.137C120.976 231.813 121.059 231.445 121.059 231.03C121.059 230.651 120.976 230.295 120.809 229.961C120.647 229.628 120.39 229.36 120.036 229.158C119.682 228.951 119.22 228.847 118.649 228.847H116.041V238.686H114.578V227.649H118.649C119.483 227.649 120.188 227.793 120.764 228.081C121.34 228.37 121.777 228.769 122.075 229.279C122.373 229.785 122.522 230.363 122.522 231.015C122.522 231.723 122.373 232.326 122.075 232.827C121.777 233.327 121.34 233.709 120.764 233.971C120.188 234.229 119.483 234.358 118.649 234.358Z" fill="#4E4E4E"/>
<path d="M110.644 235.465V227.649H112.099V235.465C112.099 236.192 111.95 236.806 111.652 237.307C111.354 237.807 110.942 238.188 110.416 238.451C109.896 238.709 109.297 238.838 108.62 238.838C107.943 238.838 107.341 238.722 106.816 238.489C106.29 238.257 105.878 237.903 105.58 237.428C105.282 236.953 105.133 236.354 105.133 235.631H106.596C106.596 236.096 106.682 236.478 106.854 236.776C107.025 237.074 107.263 237.294 107.566 237.435C107.874 237.577 108.226 237.648 108.62 237.648C109.004 237.648 109.347 237.567 109.651 237.405C109.959 237.238 110.201 236.993 110.378 236.67C110.555 236.341 110.644 235.94 110.644 235.465Z" fill="#4E4E4E"/>
<path d="M94.381 233.835C94.381 244.016 86.1273 252.27 75.9459 252.27C65.7644 252.27 57.5107 244.016 57.5107 233.835C57.5107 223.653 65.7644 215.399 75.9459 215.399C86.1273 215.399 94.381 223.653 94.381 233.835Z" fill="#CBE0CC"/>
<path d="M80.3831 233.712V235.336H71.3019V233.712H80.3831ZM80.3831 236.685V238.3H71.3019V236.685H80.3831ZM75.2762 234.131L78.4783 226.396H81.4437L77.2119 235.438H75.6057L75.2762 234.131ZM73.4435 226.396L76.6868 234.212L76.3058 235.438H74.6996L70.4473 226.396H73.4435ZM77.3252 233.477V241.273H74.504V233.477H77.3252Z" fill="white"/>
<path d="M32.9326 25.7905C32.9326 24.0509 34.3429 22.6406 36.0825 22.6406H241.302C243.041 22.6406 244.452 24.0509 244.452 25.7905C244.452 27.5301 243.041 28.9404 241.302 28.9404H36.0825C34.3429 28.9404 32.9326 27.5301 32.9326 25.7905Z" fill="#CBE0CC"/>
<path d="M32.9326 40.1899C32.9326 38.4503 34.3429 37.04 36.0825 37.04H146.862C148.602 37.04 150.012 38.4503 150.012 40.1899C150.012 41.9295 148.602 43.3398 146.862 43.3398H36.0825C34.3429 43.3398 32.9326 41.9295 32.9326 40.1899Z" fill="#CBE0CC"/>
<path d="M171.035 345.416L157.87 330.862L184.199 330.862L171.035 345.416Z" fill="#4E4E4E"/>
<defs>
<filter id="filter0_d_2409_34564" x="0.933594" y="48.0381" width="339.557" height="358.962" filterUnits="userSpaceOnUse" color-interpolation-filters="sRGB">
<feFlood flood-opacity="0" result="BackgroundImageFix"/>
<feColorMatrix in="SourceAlpha" type="matrix" values="0 0 0 0 0 0 0 0 0 0 0 0 0 0 0 0 0 0 127 0" result="hardAlpha"/>
<feOffset dy="16"/>
<feGaussianBlur stdDeviation="16"/>
<feComposite in2="hardAlpha" operator="out"/>
<feColorMatrix type="matrix" values="0 0 0 0 0 0 0 0 0 0 0 0 0 0 0 0 0 0 0.08 0"/>
<feBlend mode="normal" in2="BackgroundImageFix" result="effect1_dropShadow_2409_34564"/>
<feBlend mode="normal" in="SourceGraphic" in2="effect1_dropShadow_2409_34564" result="shape"/>
</filter>
<filter id="filter1_d_2409_34564" x="15.1641" y="73.9111" width="311.096" height="117.041" filterUnits="userSpaceOnUse" color-interpolation-filters="sRGB">
<feFlood flood-opacity="0" result="BackgroundImageFix"/>
<feColorMatrix in="SourceAlpha" type="matrix" values="0 0 0 0 0 0 0 0 0 0 0 0 0 0 0 0 0 0 127 0" result="hardAlpha"/>
<feOffset dy="16"/>
<feGaussianBlur stdDeviation="16"/>
<feComposite in2="hardAlpha" operator="out"/>
<feColorMatrix type="matrix" values="0 0 0 0 0 0 0 0 0 0 0 0 0 0 0 0 0 0 0.05 0"/>
<feBlend mode="normal" in2="BackgroundImageFix" result="effect1_dropShadow_2409_34564"/>
<feBlend mode="normal" in="SourceGraphic" in2="effect1_dropShadow_2409_34564" result="shape"/>
</filter>
</defs>
</svg>
